<svg xmlns="http://www.w3.org/2000/svg" xmlns:xlink="http://www.w3.org/1999/xlink" width="220.38235294117646" height="127" viewBox="0 0 220.38235294117646 127" fill="none"><g opacity="1" transform="translate(0 0)  rotate(0 110.19117647058823 63.5)"><path id="矩形 2" fill-rule="evenodd" style="fill:#FFFFFF" transform="translate(0 0)  rotate(0 110.19117647058823 63.5)" opacity="0" d="M0,127L220.38,127L220.38,0L0,0L0,127Z " /><path  id="矩形 2" style="stroke:#2329D6; stroke-width:5; stroke-opacity:1; stroke-dasharray:0 0" transform="translate(0 0)  rotate(0 110.19117647058823 63.5)" d="M0,127L220.38,127L220.38,0L0,0L0,127Z " /><path id="文本 2" fill-rule="evenodd" style="fill:#2329D6" transform="translate(25.79220588235284 20.282647058823553)  rotate(0 86.32264705882353 42.302205882352936)" opacity="1" d="M15.91 25.83C15.91 25.83 19.05 18.71 24.76 14.85C24.76 14.85 30.48 10.98 37.76 10.98C37.76 10.98 44.38 10.98 49.08 14.23C49.08 14.23 53.79 17.48 56.59 23.31L66.45 17.48C66.45 17.48 63.2 9.53 55.58 4.76C55.58 4.76 47.96 0 37.99 0C37.99 0 27.45 0 18.77 5.27C18.77 5.27 10.09 10.53 5.04 20.17C5.04 20.17 0 29.81 0 42.25C0 42.25 0 54.68 5.04 64.32C5.04 64.32 10.09 73.96 18.77 79.28C18.77 79.28 27.45 84.6 37.99 84.6C37.99 84.6 47.96 84.6 55.58 79.84C55.58 79.84 63.2 75.08 66.45 67.12L56.59 61.3C56.59 61.3 53.79 67.12 49.08 70.37C49.08 70.37 44.38 73.62 37.76 73.62C37.76 73.62 30.48 73.62 24.76 69.7C24.76 69.7 19.05 65.78 15.91 58.66C15.91 58.66 12.77 51.55 12.77 42.25C12.77 42.25 12.77 32.95 15.91 25.83ZM161.78 4.76C169.4 9.53 172.65 17.48 172.65 17.48L162.78 23.31C159.98 17.48 155.28 14.23 155.28 14.23C150.57 10.98 143.96 10.98 143.96 10.98C136.67 10.98 130.96 14.85 130.96 14.85C125.24 18.71 122.11 25.83 122.11 25.83C118.97 32.95 118.97 42.25 118.97 42.25C118.97 51.55 122.11 58.66 122.11 58.66C125.24 65.78 130.96 69.7 130.96 69.7C136.67 73.62 143.96 73.62 143.96 73.62C150.57 73.62 155.28 70.37 155.28 70.37C159.98 67.12 162.78 61.3 162.78 61.3L172.65 67.12C169.4 75.08 161.78 79.84 161.78 79.84C154.16 84.6 144.18 84.6 144.18 84.6C133.65 84.6 124.96 79.28 124.96 79.28C116.28 73.96 111.24 64.32 111.24 64.32C106.19 54.68 106.19 42.25 106.19 42.25C106.19 29.81 111.24 20.17 111.24 20.17C116.28 10.53 124.96 5.27 124.96 5.27C133.65 0 144.18 0 144.18 0C154.16 0 161.78 4.76 161.78 4.76Z" /></g></svg>