<svg xmlns="http://www.w3.org/2000/svg" xmlns:xlink="http://www.w3.org/1999/xlink" width="1000" height="1000" viewBox="0 0 1000 1000" fill="none"><defs><rect id="path_0" x="0" y="0" width="1000" height="1000" /><rect id="path_1" x="0" y="0" width="236" height="236" /><rect id="path_2" x="0" y="0" width="236" height="236" /><rect id="path_3" x="0" y="0" width="200" height="188" /></defs><g opacity="1" transform="translate(0 0)  rotate(0 500 500)"><mask id="bg-mask-0" fill="white"><use xlink:href="#path_0"></use></mask><g mask="url(#bg-mask-0)" ><path id="矩形 1" fill-rule="evenodd" style="fill:#FFFFFF" transform="translate(85 85)  rotate(0 415 415)" opacity="1" d="M0,780C0,807.61 22.39,830 50,830L780,830C807.61,830 830,807.61 830,780L830,50C830,22.39 807.61,0 780,0L50,0C22.39,0 0,22.39 0,50Z " /><path id="文本 1" fill-rule="evenodd" style="fill:#2329D6" transform="translate(170.64 389.02000000000004)  rotate(0 339.985 109.73999999999998)" opacity="1" d="M66.38 169.03L53.69 219.48L0 219.48L68.15 0L131.28 0L199.42 219.48L143.96 219.48L131.28 169.03L66.38 169.03ZM620.97 219.48L679.97 219.48L631 132.45C631 132.45 648.11 124.49 658.44 108.85C658.44 108.85 668.76 93.22 668.76 69.03C668.76 69.03 668.76 42.48 657.11 27.43C657.11 27.43 645.46 12.39 625.99 6.19C625.99 6.19 606.52 0 582.92 0L502.38 0L502.38 219.48L555.19 219.48L555.19 142.19L580.56 142.19L620.97 219.48ZM76.41 128.32L121.25 128.32L116.53 109.74C112.1 93.22 107.82 74.63 107.82 74.63C103.55 56.05 99.12 39.23 99.12 39.23L97.94 39.23C94.1 56.34 89.68 74.78 89.68 74.78C85.26 93.22 81.13 109.74 81.13 109.74L76.41 128.32ZM617.14 69.03C617.14 69.03 617.14 100.59 578.79 100.59L555.19 100.59L555.19 41.59L578.79 41.59C578.79 41.59 597.67 41.59 607.4 47.49C607.4 47.49 617.14 53.39 617.14 69.03ZM368.01 108.56C368.01 122.13 359.16 131.57 359.16 131.57C350.31 141.01 336.74 141.01 336.74 141.01C323.17 141.01 314.32 131.57 314.32 131.57C305.47 122.13 305.47 108.56 305.47 108.56C305.47 94.69 314.32 85.25 314.32 85.25C323.17 75.81 336.74 75.81 336.74 75.81C350.31 75.81 359.16 85.25 359.16 85.25C368.01 94.69 368.01 108.56 368.01 108.56Z" /><g opacity="1" transform="translate(152 149)  rotate(0 118 118)"><mask id="bg-mask-1" fill="white"><use xlink:href="#path_1"></use></mask><g mask="url(#bg-mask-1)" ><path  id="路径 1" style="stroke:#2329D6; stroke-width:10; stroke-opacity:1; stroke-dasharray:0 0" transform="translate(19.666666666666668 59)  rotate(0 98.33333333333333 59)" d="M98.33,0C29.5,0 0,59 0,59C0,59 29.5,118 98.33,118C167.17,118 196.67,59 196.67,59C196.67,59 167.17,0 98.33,0Z " /><path  id="路径 2" style="stroke:#2329D6; stroke-width:10; stroke-opacity:1; stroke-dasharray:0 0" transform="translate(88.5 88.5)  rotate(0 29.5 29.5)" d="M29.5,0C13.21,0 0,13.21 0,29.5C0,45.79 13.21,59 29.5,59C45.79,59 59,45.79 59,29.5C59,13.21 45.79,0 29.5,0Z " /></g></g><g opacity="1" transform="translate(160 670)  rotate(0 110.19117647058823 63.5)"><path id="矩形 2" fill-rule="evenodd" style="fill:#FFFFFF" transform="translate(0 0)  rotate(0 110.19117647058823 63.5)" opacity="0" d="M0,127L220.38,127L220.38,0L0,0L0,127Z " /><path  id="矩形 2" style="stroke:#2329D6; stroke-width:5; stroke-opacity:1; stroke-dasharray:0 0" transform="translate(0 0)  rotate(0 110.19117647058823 63.5)" d="M0,127L220.38,127L220.38,0L0,0L0,127Z " /><path id="文本 2" fill-rule="evenodd" style="fill:#2329D6" transform="translate(25.79220588235284 20.282647058823553)  rotate(0 86.32264705882353 42.302205882352936)" opacity="1" d="M15.91 25.83C15.91 25.83 19.05 18.71 24.76 14.85C24.76 14.85 30.48 10.98 37.76 10.98C37.76 10.98 44.38 10.98 49.08 14.23C49.08 14.23 53.79 17.48 56.59 23.31L66.45 17.48C66.45 17.48 63.2 9.53 55.58 4.76C55.58 4.76 47.96 0 37.99 0C37.99 0 27.45 0 18.77 5.27C18.77 5.27 10.09 10.53 5.04 20.17C5.04 20.17 0 29.81 0 42.25C0 42.25 0 54.68 5.04 64.32C5.04 64.32 10.09 73.96 18.77 79.28C18.77 79.28 27.45 84.6 37.99 84.6C37.99 84.6 47.96 84.6 55.58 79.84C55.58 79.84 63.2 75.08 66.45 67.12L56.59 61.3C56.59 61.3 53.79 67.12 49.08 70.37C49.08 70.37 44.38 73.62 37.76 73.62C37.76 73.62 30.48 73.62 24.76 69.7C24.76 69.7 19.05 65.78 15.91 58.66C15.91 58.66 12.77 51.55 12.77 42.25C12.77 42.25 12.77 32.95 15.91 25.83ZM161.78 4.76C169.4 9.53 172.65 17.48 172.65 17.48L162.78 23.31C159.98 17.48 155.28 14.23 155.28 14.23C150.57 10.98 143.96 10.98 143.96 10.98C136.67 10.98 130.96 14.85 130.96 14.85C125.24 18.71 122.11 25.83 122.11 25.83C118.97 32.95 118.97 42.25 118.97 42.25C118.97 51.55 122.11 58.66 122.11 58.66C125.24 65.78 130.96 69.7 130.96 69.7C136.67 73.62 143.96 73.62 143.96 73.62C150.57 73.62 155.28 70.37 155.28 70.37C159.98 67.12 162.78 61.3 162.78 61.3L172.65 67.12C169.4 75.08 161.78 79.84 161.78 79.84C154.16 84.6 144.18 84.6 144.18 84.6C133.65 84.6 124.96 79.28 124.96 79.28C116.28 73.96 111.24 64.32 111.24 64.32C106.19 54.68 106.19 42.25 106.19 42.25C106.19 29.81 111.24 20.17 111.24 20.17C116.28 10.53 124.96 5.27 124.96 5.27C133.65 0 144.18 0 144.18 0C154.16 0 161.78 4.76 161.78 4.76Z" /></g><g opacity="1" transform="translate(636 615)  rotate(0 118 118)"><mask id="bg-mask-2" fill="white"><use xlink:href="#path_2"></use></mask><g mask="url(#bg-mask-2)" ><g opacity="1" transform="translate(19.666666666666668 59)  rotate(0 49.16666666666667 59.00000000000001)"><path  id="路径 1" style="stroke:#2329D6; stroke-width:10; stroke-opacity:1; stroke-dasharray:0 0" transform="translate(0 68.83333333333334)  rotate(0 10.243039166666671 24.58333333333333)" d="M0,49.17L20.49,0 " /><path  id="路径 2" style="stroke:#2329D6; stroke-width:10; stroke-opacity:1; stroke-dasharray:0 0" transform="translate(77.847255 68.83333333333334)  rotate(0 10.24303916666667 24.58333333333333)" d="M20.49,49.17L0,0 " /><path  id="路径 3" style="stroke:#2329D6; stroke-width:10; stroke-opacity:1; stroke-dasharray:0 0" transform="translate(20.486078333333342 0)  rotate(0 28.680588333333333 34.41666666666667)" d="M0,68.83L28.68,0L57.36,68.83 " /><path  id="路径 4" style="stroke:#2329D6; stroke-width:10; stroke-opacity:1; stroke-dasharray:0 0" transform="translate(20.486078333333335 68.83333333333334)  rotate(0 28.680588333333333 0)" d="M0,0L57.36,0 " /></g><path  id="路径 5" style="stroke:#2329D6; stroke-width:10; stroke-opacity:1; stroke-dasharray:0 0" transform="translate(137.66666666666669 98.33333333333334)  rotate(0 39.333333333333336 39.333333333333336)" d="M39.33,0C17.61,0 0,17.61 0,39.33C0,61.06 17.61,78.67 39.33,78.67C61.06,78.67 78.67,61.06 78.67,39.33C78.67,17.61 61.06,0 39.33,0Z " /><path  id="路径 6" style="stroke:#2329D6; stroke-width:10; stroke-opacity:1; stroke-dasharray:0 0" transform="translate(216.33333333333334 98.33333333333334)  rotate(0 0.005 39.333333333333336)" d="M0,78.67Z M0,0L0,78.67 " /></g></g><g opacity="1" transform="translate(636 173)  rotate(0 100 94)"><mask id="bg-mask-3" fill="white"><use xlink:href="#path_3"></use></mask><g mask="url(#bg-mask-3)" ><path  id="路径 1" style="stroke:#2329D6; stroke-width:10; stroke-opacity:1; stroke-dasharray:0 0" transform="translate(50 23.5)  rotate(0 58.33333333333334 74.41666666666667)" d="M0,54.83C0,24.55 26.12,0 58.33,0C90.55,0 116.67,24.55 116.67,54.83C116.67,77.33 101.7,94.63 87.5,109.67C75.56,122.31 70.83,148.83 41.67,148.83C32.28,148.83 23.63,145.92 16.66,141 " /><path  id="路径 2" style="stroke:#2329D6; stroke-width:10; stroke-opacity:1; stroke-dasharray:0 0" transform="translate(83.33333333333334 54.83333333333334)  rotate(0 25 19.583333333333336)" d="M0,23.5C0,10.52 11.19,0 25,0C38.81,0 50,10.52 50,23.5C50,29.52 47.59,35.01 43.63,39.17 " /></g></g></g></g></svg>