<svg xmlns="http://www.w3.org/2000/svg" xmlns:xlink="http://www.w3.org/1999/xlink" width="1000" height="1000" viewBox="0 0 1000 1000" fill="none"><defs><rect id="path_0" x="0" y="0" width="1000" height="1000" /><rect id="path_1" x="0" y="0" width="236" height="236" /><rect id="path_2" x="0" y="0" width="200" height="188" /><rect id="path_3" x="0" y="0" width="220" height="220" /></defs><g opacity="1" transform="translate(0 0)  rotate(0 500 500)"><mask id="bg-mask-0" fill="white"><use xlink:href="#path_0"></use></mask><g mask="url(#bg-mask-0)" ><path id="矩形 1" fill-rule="evenodd" style="fill:#2329D6" transform="translate(85 85)  rotate(0 415 415)" opacity="1" d="M0,780C0,807.61 22.39,830 50,830L780,830C807.61,830 830,807.61 830,780L830,50C830,22.39 807.61,0 780,0L50,0C22.39,0 0,22.39 0,50Z " /><path id="文本 1" fill-rule="evenodd" style="fill:#FFFFFF" transform="translate(123.90000000000009 370.04)  rotate(0 377.65 134.48)" opacity="1" d="M115 66.78C115 66.78 109.36 59.4 109.36 46.08C109.36 46.08 109.36 37.32 112.18 31.14C112.18 31.14 115 24.96 119.8 21.66C119.8 21.66 124.6 18.36 130.36 18.36C130.36 18.36 135.16 18.36 138.82 20.28C138.82 20.28 142.48 22.2 145.84 25.32L157.12 11.64C157.12 11.64 152.56 6.96 145.66 3.48C145.66 3.48 138.76 0 130 0C130 0 121.48 0 113.8 3.12C113.8 3.12 106.12 6.24 100.18 12.24C100.18 12.24 94.24 18.24 90.82 26.94C90.82 26.94 87.4 35.64 87.4 46.8C87.4 46.8 87.4 58.08 90.7 66.66C90.7 66.66 94 75.24 99.82 81.06C99.82 81.06 105.64 86.88 113.2 89.76C113.2 89.76 120.76 92.64 129.28 92.64C129.28 92.64 147.04 92.64 158.44 79.44L147.16 66C147.16 66 144.04 69.36 139.72 71.76C139.72 71.76 135.4 74.16 130.12 74.16C130.12 74.16 120.64 74.16 115 66.78ZM219.86 20.28C216.2 18.36 211.4 18.36 211.4 18.36C205.64 18.36 200.84 21.66 200.84 21.66C196.04 24.96 193.22 31.14 193.22 31.14C190.4 37.32 190.4 46.08 190.4 46.08C190.4 59.4 196.04 66.78 196.04 66.78C201.68 74.16 211.16 74.16 211.16 74.16C216.44 74.16 220.76 71.76 220.76 71.76C225.08 69.36 228.2 66 228.2 66L239.48 79.44C228.08 92.64 210.32 92.64 210.32 92.64C201.8 92.64 194.24 89.76 194.24 89.76C186.68 86.88 180.86 81.06 180.86 81.06C175.04 75.24 171.74 66.66 171.74 66.66C168.44 58.08 168.44 46.8 168.44 46.8C168.44 35.64 171.86 26.94 171.86 26.94C175.28 18.24 181.22 12.24 181.22 12.24C187.16 6.24 194.84 3.12 194.84 3.12C202.52 0 211.04 0 211.04 0C219.8 0 226.7 3.48 226.7 3.48C233.6 6.96 238.16 11.64 238.16 11.64L226.88 25.32C223.52 22.2 219.86 20.28 219.86 20.28ZM369.88 20.1C365.56 18.36 360.28 18.36 360.28 18.36C355.36 18.36 352.48 20.28 352.48 20.28C349.6 22.2 349.6 25.8 349.6 25.8C349.6 29.52 353.44 31.44 353.44 31.44C357.28 33.36 363.16 35.76 363.16 35.76L374.32 40.2C382.6 43.56 387.28 49.38 387.28 49.38C391.96 55.2 391.96 64.68 391.96 64.68C391.96 72.12 387.94 78.48 387.94 78.48C383.92 84.84 376.3 88.74 376.3 88.74C368.68 92.64 357.88 92.64 357.88 92.64C349.12 92.64 340.3 89.4 340.3 89.4C331.48 86.16 324.52 79.8 324.52 79.8L336.64 65.04C341.44 69.12 347.26 71.64 347.26 71.64C353.08 74.16 358.36 74.16 358.36 74.16C364.36 74.16 367.18 72.06 367.18 72.06C370 69.96 370 66.36 370 66.36C370 62.52 366.58 60.6 366.58 60.6C363.16 58.68 357.4 56.28 357.4 56.28L346 51.48C341.32 49.56 337.18 46.32 337.18 46.32C333.04 43.08 330.46 38.28 330.46 38.28C327.88 33.48 327.88 27 327.88 27C327.88 19.44 332.02 13.32 332.02 13.32C336.16 7.2 343.48 3.6 343.48 3.6C350.8 0 360.28 0 360.28 0C368.08 0 375.76 2.94 375.76 2.94C383.44 5.88 389.32 11.76 389.32 11.76L378.64 25.2C374.2 21.84 369.88 20.1 369.88 20.1ZM447.56 20.1C443.24 18.36 437.96 18.36 437.96 18.36C433.04 18.36 430.16 20.28 430.16 20.28C427.28 22.2 427.28 25.8 427.28 25.8C427.28 29.52 431.12 31.44 431.12 31.44C434.96 33.36 440.84 35.76 440.84 35.76L452 40.2C460.28 43.56 464.96 49.38 464.96 49.38C469.64 55.2 469.64 64.68 469.64 64.68C469.64 72.12 465.62 78.48 465.62 78.48C461.6 84.84 453.98 88.74 453.98 88.74C446.36 92.64 435.56 92.64 435.56 92.64C426.8 92.64 417.98 89.4 417.98 89.4C409.16 86.16 402.2 79.8 402.2 79.8L414.32 65.04C419.12 69.12 424.94 71.64 424.94 71.64C430.76 74.16 436.04 74.16 436.04 74.16C442.04 74.16 444.86 72.06 444.86 72.06C447.68 69.96 447.68 66.36 447.68 66.36C447.68 62.52 444.26 60.6 444.26 60.6C440.84 58.68 435.08 56.28 435.08 56.28L423.68 51.48C419 49.56 414.86 46.32 414.86 46.32C410.72 43.08 408.14 38.28 408.14 38.28C405.56 33.48 405.56 27 405.56 27C405.56 19.44 409.7 13.32 409.7 13.32C413.84 7.2 421.16 3.6 421.16 3.6C428.48 0 437.96 0 437.96 0C445.76 0 453.44 2.94 453.44 2.94C461.12 5.88 467 11.76 467 11.76L456.32 25.2C451.88 21.84 447.56 20.1 447.56 20.1ZM21.84 90.96L27 70.44L53.4 70.44L58.56 90.96L81.12 90.96L53.4 1.68L27.72 1.68L0 90.96L21.84 90.96ZM311.52 90.96L253.56 90.96L253.56 1.68L310.2 1.68L310.2 19.44L275.04 19.44L275.04 36L304.92 36L304.92 54L275.04 54L275.04 72.96L311.52 72.96L311.52 90.96ZM485.52 1.68L507 1.68L507 90.96L485.52 90.96L485.52 1.68ZM576.52 3.6C584.08 5.52 588.52 10.32 588.52 10.32C592.96 15.12 592.96 23.76 592.96 23.76C592.96 27.72 591.52 31.62 591.52 31.62C590.08 35.52 587.5 38.58 587.5 38.58C584.92 41.64 581.32 43.08 581.32 43.08L581.32 43.56C588.04 45.36 592.6 50.52 592.6 50.52C597.16 55.68 597.16 64.56 597.16 64.56C597.16 73.68 592.48 79.5 592.48 79.5C587.8 85.32 579.88 88.14 579.88 88.14C571.96 90.96 562.24 90.96 562.24 90.96L528.52 90.96L528.52 1.68L559.72 1.68C568.96 1.68 576.52 3.6 576.52 3.6ZM669.08 90.96L669.08 72.96L634.4 72.96L634.4 1.68L612.92 1.68L612.92 90.96L669.08 90.96ZM707.04 54L736.92 54L736.92 36L707.04 36L707.04 19.44L742.2 19.44L742.2 1.68L685.56 1.68L685.56 90.96L743.52 90.96L743.52 72.96L707.04 72.96L707.04 54ZM47.4 46.32L49.32 53.88L31.08 53.88L33 46.32C33 46.32 34.68 39.6 36.48 32.1C36.48 32.1 38.28 24.6 39.84 17.64L40.32 17.64C40.32 17.64 42.12 24.48 43.86 32.04C43.86 32.04 45.6 39.6 47.4 46.32ZM550 18L550 37.08L558.88 37.08C565.72 37.08 568.9 34.32 568.9 34.32C572.08 31.56 572.08 27 572.08 27C572.08 22.2 568.84 20.1 568.84 20.1C565.6 18 558.88 18 558.88 18L550 18ZM550 52.92L550 74.52L560.68 74.52C576.28 74.52 576.28 63.12 576.28 63.12C576.28 57.6 572.38 55.26 572.38 55.26C568.48 52.92 560.68 52.92 560.68 52.92L550 52.92ZM5.42 179.68L5.42 268.96L26.9 268.96L26.9 237.52L37.22 237.52L53.66 268.96L77.66 268.96L57.74 233.56C57.74 233.56 64.7 230.32 68.9 223.96C68.9 223.96 73.1 217.6 73.1 207.76C73.1 207.76 73.1 196.96 68.36 190.84C68.36 190.84 63.62 184.72 55.7 182.2C55.7 182.2 47.78 179.68 38.18 179.68L5.42 179.68ZM196.7 214L166.82 214L166.82 197.44L201.98 197.44L201.98 179.68L145.34 179.68L145.34 268.96L203.3 268.96L203.3 250.96L166.82 250.96L166.82 232L196.7 232L196.7 214ZM264.62 268.96L286.46 268.96L291.62 248.44L318.02 248.44L323.18 268.96L345.74 268.96L318.02 179.68L292.34 179.68L264.62 268.96ZM480.98 223.84C480.98 239.32 475.4 249.34 475.4 249.34C469.82 259.36 459.92 264.16 459.92 264.16C450.02 268.96 436.94 268.96 436.94 268.96L410.06 268.96L410.06 179.68L435.74 179.68C449.42 179.68 459.56 184.24 459.56 184.24C469.7 188.8 475.34 198.52 475.34 198.52C480.98 208.24 480.98 223.84 480.98 223.84ZM552.5 268.96L552.5 179.68L609.14 179.68L609.14 197.44L573.98 197.44L573.98 214L603.86 214L603.86 232L573.98 232L573.98 250.96L610.46 250.96L610.46 268.96L552.5 268.96ZM704.54 237.52L704.54 268.96L683.06 268.96L683.06 179.68L715.82 179.68C725.42 179.68 733.34 182.2 733.34 182.2C741.26 184.72 746 190.84 746 190.84C750.74 196.96 750.74 207.76 750.74 207.76C750.74 217.6 746.54 223.96 746.54 223.96C742.34 230.32 735.38 233.56 735.38 233.56L755.3 268.96L731.3 268.96L714.86 237.52L704.54 237.52ZM301.1 210.1C301.1 210.1 302.9 202.6 304.46 195.64L304.94 195.64C304.94 195.64 306.74 202.48 308.48 210.04C308.48 210.04 310.22 217.6 312.02 224.32L313.94 231.88L295.7 231.88L297.62 224.32C297.62 224.32 299.3 217.6 301.1 210.1ZM36.5 196.6L26.9 196.6L26.9 220.6L36.5 220.6C52.1 220.6 52.1 207.76 52.1 207.76C52.1 201.4 48.14 199 48.14 199C44.18 196.6 36.5 196.6 36.5 196.6ZM729.74 207.76C729.74 201.4 725.78 199 725.78 199C721.82 196.6 714.14 196.6 714.14 196.6L704.54 196.6L704.54 220.6L714.14 220.6C729.74 220.6 729.74 207.76 729.74 207.76ZM431.54 196.72L431.54 251.68L434.42 251.68C441.62 251.68 447.2 249.16 447.2 249.16C452.78 246.64 455.9 240.52 455.9 240.52C459.02 234.4 459.02 223.84 459.02 223.84C459.02 213.16 455.9 207.28 455.9 207.28C452.78 201.4 447.2 199.06 447.2 199.06C441.62 196.72 434.42 196.72 434.42 196.72L431.54 196.72Z" /><g opacity="1" transform="translate(170 705)  rotate(0 118 68)"><path id="矩形 2" fill-rule="evenodd" style="fill:#FFFFFF" transform="translate(0 0)  rotate(0 118 68)" opacity="0" d="M0,136L236,136L236,0L0,0L0,136Z " /><path  id="矩形 2" style="stroke:#FFFFFF; stroke-width:5; stroke-opacity:1; stroke-dasharray:0 0" transform="translate(0 0)  rotate(0 118 68)" d="M0,136L236,136L236,0L0,0L0,136Z " /><path id="文本 2" fill-rule="evenodd" style="fill:#FFFFFF" transform="translate(27.61999999999989 21.720000000000027)  rotate(0 92.44000000000001 45.3)" opacity="1" d="M40.44 78.84C40.44 78.84 32.64 78.84 26.52 74.64C26.52 74.64 20.4 70.44 17.04 62.82C17.04 62.82 13.68 55.2 13.68 45.24C13.68 45.24 13.68 35.28 17.04 27.66C17.04 27.66 20.4 20.04 26.52 15.9C26.52 15.9 32.64 11.76 40.44 11.76C40.44 11.76 47.52 11.76 52.56 15.24C52.56 15.24 57.6 18.72 60.6 24.96L71.16 18.72C71.16 18.72 67.68 10.2 59.52 5.1C59.52 5.1 51.36 0 40.68 0C40.68 0 29.4 0 20.1 5.64C20.1 5.64 10.8 11.28 5.4 21.6C5.4 21.6 0 31.92 0 45.24C0 45.24 0 58.56 5.4 68.88C5.4 68.88 10.8 79.2 20.1 84.9C20.1 84.9 29.4 90.6 40.68 90.6C40.68 90.6 51.36 90.6 59.52 85.5C59.52 85.5 67.68 80.4 71.16 71.88L60.6 65.64C60.6 65.64 57.6 71.88 52.56 75.36C52.56 75.36 47.52 78.84 40.44 78.84ZM173.24 5.1C181.4 10.2 184.88 18.72 184.88 18.72L174.32 24.96C171.32 18.72 166.28 15.24 166.28 15.24C161.24 11.76 154.16 11.76 154.16 11.76C146.36 11.76 140.24 15.9 140.24 15.9C134.12 20.04 130.76 27.66 130.76 27.66C127.4 35.28 127.4 45.24 127.4 45.24C127.4 55.2 130.76 62.82 130.76 62.82C134.12 70.44 140.24 74.64 140.24 74.64C146.36 78.84 154.16 78.84 154.16 78.84C161.24 78.84 166.28 75.36 166.28 75.36C171.32 71.88 174.32 65.64 174.32 65.64L184.88 71.88C181.4 80.4 173.24 85.5 173.24 85.5C165.08 90.6 154.4 90.6 154.4 90.6C143.12 90.6 133.82 84.9 133.82 84.9C124.52 79.2 119.12 68.88 119.12 68.88C113.72 58.56 113.72 45.24 113.72 45.24C113.72 31.92 119.12 21.6 119.12 21.6C124.52 11.28 133.82 5.64 133.82 5.64C143.12 0 154.4 0 154.4 0C165.08 0 173.24 5.1 173.24 5.1Z" /></g><g opacity="1" transform="translate(170 120)  rotate(0 118 118)"><mask id="bg-mask-1" fill="white"><use xlink:href="#path_1"></use></mask><g mask="url(#bg-mask-1)" ><path  id="路径 1" style="stroke:#FFFFFF; stroke-width:10; stroke-opacity:1; stroke-dasharray:0 0" transform="translate(19.666666666666668 59)  rotate(0 98.33333333333333 59)" d="M98.33,0C29.5,0 0,59 0,59C0,59 29.5,118 98.33,118C167.17,118 196.67,59 196.67,59C196.67,59 167.17,0 98.33,0Z " /><path  id="路径 2" style="stroke:#FFFFFF; stroke-width:10; stroke-opacity:1; stroke-dasharray:0 0" transform="translate(88.5 88.5)  rotate(0 29.5 29.5)" d="M29.5,0C13.21,0 0,13.21 0,29.5C0,45.79 13.21,59 29.5,59C45.79,59 59,45.79 59,29.5C59,13.21 45.79,0 29.5,0Z " /></g></g><g opacity="1" transform="translate(602 144)  rotate(0 100 94)"><mask id="bg-mask-2" fill="white"><use xlink:href="#path_2"></use></mask><g mask="url(#bg-mask-2)" ><path  id="路径 1" style="stroke:#FFFFFF; stroke-width:10; stroke-opacity:1; stroke-dasharray:0 0" transform="translate(50 23.5)  rotate(0 58.33333333333334 74.41666666666667)" d="M0,54.83C0,24.55 26.12,0 58.33,0C90.55,0 116.67,24.55 116.67,54.83C116.67,77.33 101.7,94.63 87.5,109.67C75.56,122.31 70.83,148.83 41.67,148.83C32.28,148.83 23.63,145.92 16.66,141 " /><path  id="路径 2" style="stroke:#FFFFFF; stroke-width:10; stroke-opacity:1; stroke-dasharray:0 0" transform="translate(83.33333333333334 54.83333333333334)  rotate(0 25 19.583333333333336)" d="M0,23.5C0,10.52 11.19,0 25,0C38.81,0 50,10.52 50,23.5C50,29.52 47.59,35.01 43.63,39.17 " /></g></g><g opacity="1" transform="translate(592 651)  rotate(0 110 110)"><mask id="bg-mask-3" fill="white"><use xlink:href="#path_3"></use></mask><g mask="url(#bg-mask-3)" ><g opacity="1" transform="translate(18.333333333333332 55)  rotate(0 45.83333333333333 54.99999999999999)"><path  id="路径 1" style="stroke:#FFFFFF; stroke-width:9.999999999999998; stroke-opacity:1; stroke-dasharray:0 0" transform="translate(0 64.16666666666666)  rotate(0 9.548595833333334 22.916666666666664)" d="M0,45.83L19.1,0 " /><path  id="路径 2" style="stroke:#FFFFFF; stroke-width:9.999999999999998; stroke-opacity:1; stroke-dasharray:0 0" transform="translate(72.569475 64.16666666666666)  rotate(0 9.548595833333334 22.916666666666664)" d="M19.1,45.83L0,0 " /><path  id="路径 3" style="stroke:#FFFFFF; stroke-width:9.999999999999998; stroke-opacity:1; stroke-dasharray:0 0" transform="translate(19.097191666666667 0)  rotate(0 26.736141666666665 32.08333333333333)" d="M0,64.17L26.74,0L53.47,64.17 " /><path  id="路径 4" style="stroke:#FFFFFF; stroke-width:9.999999999999998; stroke-opacity:1; stroke-dasharray:0 0" transform="translate(19.097191666666667 64.16666666666666)  rotate(0 26.736141666666665 4.583333333333333)" d="M0,0L53.47,0 " /></g><path  id="路径 5" style="stroke:#FFFFFF; stroke-width:9.999999999999998; stroke-opacity:1; stroke-dasharray:0 0" transform="translate(128.33333333333331 91.66666666666666)  rotate(0 36.666666666666664 36.666666666666664)" d="M36.67,0C16.42,0 0,16.42 0,36.67C0,56.92 16.42,73.33 36.67,73.33C56.92,73.33 73.33,56.92 73.33,36.67C73.33,16.42 56.92,0 36.67,0Z " /><path  id="路径 6" style="stroke:#FFFFFF; stroke-width:9.999999999999998; stroke-opacity:1; stroke-dasharray:0 0" transform="translate(201.66666666666666 91.66666666666666)  rotate(0 0 36.666666666666664)" d="M0,73.33Z M0,0L0,73.33 " /></g></g></g></g></svg>