<svg xmlns="http://www.w3.org/2000/svg" xmlns:xlink="http://www.w3.org/1999/xlink" width="222" height="127" viewBox="0 0 222 127" fill="none"><g opacity="1" transform="translate(0 0)  rotate(0 111 63.5)"><path id="矩形 2" fill-rule="evenodd" style="fill:#FFFFFF" transform="translate(0 0)  rotate(0 110.19117647058823 63.5)" opacity="0" d="M0,127L220.38,127L220.38,0L0,0L0,127Z " /><path  id="矩形 2" style="stroke:#2329D6; stroke-width:5; stroke-opacity:1; stroke-dasharray:0 0" transform="translate(0 0)  rotate(0 110.19117647058823 63.5)" d="M0,127L220.38,127L220.38,0L0,0L0,127Z " /><path id="文本 1" fill-rule="evenodd" style="fill:#2329D6" transform="translate(41 33)  rotate(0 70.36000000000001 30.44)" opacity="1" d="M135.16 52.96C135.16 52.96 140.72 45.2 140.72 30.4C140.72 30.4 140.72 15.52 135.16 7.76C135.16 7.76 129.6 0 119.36 0C119.36 0 109.12 0 103.48 7.76C103.48 7.76 97.84 15.52 97.84 30.4C97.84 30.4 97.84 45.28 103.48 53C103.48 53 109.12 60.72 119.36 60.72C119.36 60.72 129.6 60.72 135.16 52.96ZM15.2 15.68L15.2 59.68L29.04 59.68L29.04 1.04L18.32 1.04L0 11.28L0 24.08L15.2 15.68ZM114.04 43.84C114.04 43.84 112.32 39.44 112.32 30.4C112.32 30.4 112.32 21.2 114.04 16.88C114.04 16.88 115.76 12.56 119.36 12.56C119.36 12.56 122.88 12.56 124.56 17C124.56 17 126.24 21.44 126.24 30.4C126.24 30.4 126.24 39.36 124.56 43.8C124.56 43.8 122.88 48.24 119.36 48.24C119.36 48.24 115.76 48.24 114.04 43.84ZM76.2 53.12C76.2 56.32 73.96 58.6 73.96 58.6C71.72 60.88 68.52 60.88 68.52 60.88C65.4 60.88 63.2 58.6 63.2 58.6C61 56.32 61 53.12 61 53.12C61 49.92 63.2 47.64 63.2 47.64C65.4 45.36 68.52 45.36 68.52 45.36C71.72 45.36 73.96 47.64 73.96 47.64C76.2 49.92 76.2 53.12 76.2 53.12Z" /></g></svg>