<svg xmlns="http://www.w3.org/2000/svg" xmlns:xlink="http://www.w3.org/1999/xlink" width="223" height="127" viewBox="0 0 223 127" fill="none"><g opacity="1" transform="translate(0 0)  rotate(0 111.5 63.5)"><path id="矩形 2" fill-rule="evenodd" style="fill:#FFFFFF" transform="translate(0 0)  rotate(0 110.19117647058823 63.5)" opacity="0" d="M0,127L220.38,127L220.38,0L0,0L0,127Z " /><path  id="矩形 2" style="stroke:#2329D6; stroke-width:5; stroke-opacity:1; stroke-dasharray:0 0" transform="translate(0 0)  rotate(0 110.19117647058823 63.5)" d="M0,127L220.38,127L220.38,0L0,0L0,127Z " /><path id="文本 1" fill-rule="evenodd" style="fill:#2329D6" transform="translate(42 34)  rotate(0 69.96000000000001 29.92)" opacity="1" d="M15.2 58.64L15.2 14.64L0 23.04L0 10.24L18.32 0L29.04 0L29.04 58.64L15.2 58.64ZM116.32 11.52L115.04 21.28C117.92 20.24 121.44 20.24 121.44 20.24C126.48 20.24 130.68 22.6 130.68 22.6C134.88 24.96 137.4 29.32 137.4 29.32C139.92 33.68 139.92 39.52 139.92 39.52C139.92 45.76 137.12 50.36 137.12 50.36C134.32 54.96 129.52 57.32 129.52 57.32C124.72 59.68 118.96 59.68 118.96 59.68C112 59.68 107.04 56.56 107.04 56.56C102.08 53.44 99.92 47.04 99.92 47.04L110.8 40.64C111.76 44.16 113.84 45.88 113.84 45.88C115.92 47.6 118.72 47.6 118.72 47.6C122 47.6 123.72 45.4 123.72 45.4C125.44 43.2 125.44 39.92 125.44 39.92C125.44 36.48 123.6 34.28 123.6 34.28C121.76 32.08 118.24 32.08 118.24 32.08C113.6 32.08 111.04 36.72 111.04 36.72L101.04 31.92L104.96 0L137.12 0L137.12 11.52L116.32 11.52ZM73.96 57.56C73.96 57.56 76.2 55.28 76.2 52.08C76.2 52.08 76.2 48.88 73.96 46.6C73.96 46.6 71.72 44.32 68.52 44.32C68.52 44.32 65.4 44.32 63.2 46.6C63.2 46.6 61 48.88 61 52.08C61 52.08 61 55.28 63.2 57.56C63.2 57.56 65.4 59.84 68.52 59.84C68.52 59.84 71.72 59.84 73.96 57.56Z" /></g></svg>