<svg xmlns="http://www.w3.org/2000/svg" xmlns:xlink="http://www.w3.org/1999/xlink" width="222.625" height="127" viewBox="0 0 222.625 127" fill="none"><g opacity="1" transform="translate(0 0)  rotate(0 111.3125 63.5)"><path id="矩形 2" fill-rule="evenodd" style="fill:#FFFFFF" transform="translate(0 0)  rotate(0 110.19117647058823 63.5)" opacity="0" d="M0,127L220.38,127L220.38,0L0,0L0,127Z " /><path  id="矩形 2" style="stroke:#2329D6; stroke-width:5; stroke-opacity:1; stroke-dasharray:0 0" transform="translate(0 0)  rotate(0 110.19117647058823 63.5)" d="M0,127L220.38,127L220.38,0L0,0L0,127Z " /><path id="文本 1" fill-rule="evenodd" style="fill:#2329D6" transform="translate(40 33)  rotate(0 71.56 30.48)" opacity="1" d="M17.52 31.6C21.76 26.8 23.44 24.16 23.44 24.16C25.12 21.52 25.12 18.8 25.12 18.8C25.12 16.08 23.6 14.32 23.6 14.32C22.08 12.56 19.36 12.56 19.36 12.56C13.28 12.56 10.56 21.36 10.56 21.36L0 15.2C2.24 7.84 7.76 3.92 7.76 3.92C13.28 0 20.64 0 20.64 0C26.64 0 30.92 2.4 30.92 2.4C35.2 4.8 37.36 8.92 37.36 8.92C39.52 13.04 39.52 18.08 39.52 18.08C39.52 23.12 37.12 27.4 37.12 27.4C34.72 31.68 28.56 38.4 28.56 38.4L20.08 47.92L42.16 47.92L42.16 59.76L0.4 59.76L0.4 50.88L17.52 31.6ZM103.12 48.16L114 41.76C114.96 45.28 117.04 47 117.04 47C119.12 48.72 121.92 48.72 121.92 48.72C125.2 48.72 126.92 46.52 126.92 46.52C128.64 44.32 128.64 41.04 128.64 41.04C128.64 37.6 126.8 35.4 126.8 35.4C124.96 33.2 121.44 33.2 121.44 33.2C116.8 33.2 114.24 37.84 114.24 37.84L104.24 33.04L108.16 1.12L140.32 1.12L140.32 12.64L119.52 12.64L118.24 22.4C121.12 21.36 124.64 21.36 124.64 21.36C129.68 21.36 133.88 23.72 133.88 23.72C138.08 26.08 140.6 30.44 140.6 30.44C143.12 34.8 143.12 40.64 143.12 40.64C143.12 46.88 140.32 51.48 140.32 51.48C137.52 56.08 132.72 58.44 132.72 58.44C127.92 60.8 122.16 60.8 122.16 60.8C115.2 60.8 110.24 57.68 110.24 57.68C105.28 54.56 103.12 48.16 103.12 48.16ZM77.16 58.68C77.16 58.68 79.4 56.4 79.4 53.2C79.4 53.2 79.4 50 77.16 47.72C77.16 47.72 74.92 45.44 71.72 45.44C71.72 45.44 68.6 45.44 66.4 47.72C66.4 47.72 64.2 50 64.2 53.2C64.2 53.2 64.2 56.4 66.4 58.68C66.4 58.68 68.6 60.96 71.72 60.96C71.72 60.96 74.92 60.96 77.16 58.68Z" /></g></svg>