<svg xmlns="http://www.w3.org/2000/svg" xmlns:xlink="http://www.w3.org/1999/xlink" width="221.25" height="127" viewBox="0 0 221.25 127" fill="none"><g opacity="1" transform="translate(0 0)  rotate(0 110.625 63.5)"><path id="矩形 2" fill-rule="evenodd" style="fill:#FFFFFF" transform="translate(0 0)  rotate(0 110.19117647058823 63.5)" opacity="0" d="M0,127L220.38,127L220.38,0L0,0L0,127Z " /><path  id="矩形 2" style="stroke:#2329D6; stroke-width:5; stroke-opacity:1; stroke-dasharray:0 0" transform="translate(0 0)  rotate(0 110.19117647058823 63.5)" d="M0,127L220.38,127L220.38,0L0,0L0,127Z " /><path id="文本 1" fill-rule="evenodd" style="fill:#2329D6" transform="translate(39 33)  rotate(0 71.96000000000001 30.48)" opacity="1" d="M17.52 31.6L0.4 50.88L0.4 59.76L42.16 59.76L42.16 47.92L20.08 47.92L28.56 38.4C28.56 38.4 34.72 31.68 37.12 27.4C37.12 27.4 39.52 23.12 39.52 18.08C39.52 18.08 39.52 13.04 37.36 8.92C37.36 8.92 35.2 4.8 30.92 2.4C30.92 2.4 26.64 0 20.64 0C20.64 0 13.28 0 7.76 3.92C7.76 3.92 2.24 7.84 0 15.2L10.56 21.36C10.56 21.36 13.28 12.56 19.36 12.56C19.36 12.56 22.08 12.56 23.6 14.32C23.6 14.32 25.12 16.08 25.12 18.8C25.12 18.8 25.12 21.52 23.44 24.16C23.44 24.16 21.76 26.8 17.52 31.6ZM106.68 7.84C106.68 7.84 101.04 15.6 101.04 30.48C101.04 30.48 101.04 45.36 106.68 53.08C106.68 53.08 112.32 60.8 122.56 60.8C122.56 60.8 132.8 60.8 138.36 53.04C138.36 53.04 143.92 45.28 143.92 30.48C143.92 30.48 143.92 15.6 138.36 7.84C138.36 7.84 132.8 0.08 122.56 0.08C122.56 0.08 112.32 0.08 106.68 7.84ZM122.56 12.64C122.56 12.64 126.08 12.64 127.76 17.08C127.76 17.08 129.44 21.52 129.44 30.48C129.44 30.48 129.44 39.44 127.76 43.88C127.76 43.88 126.08 48.32 122.56 48.32C122.56 48.32 118.96 48.32 117.24 43.92C117.24 43.92 115.52 39.52 115.52 30.48C115.52 30.48 115.52 21.28 117.24 16.96C117.24 16.96 118.96 12.64 122.56 12.64ZM79.4 53.2C79.4 56.4 77.16 58.68 77.16 58.68C74.92 60.96 71.72 60.96 71.72 60.96C68.6 60.96 66.4 58.68 66.4 58.68C64.2 56.4 64.2 53.2 64.2 53.2C64.2 50 66.4 47.72 66.4 47.72C68.6 45.44 71.72 45.44 71.72 45.44C74.92 45.44 77.16 47.72 77.16 47.72C79.4 50 79.4 53.2 79.4 53.2Z" /></g></svg>