<svg xmlns="http://www.w3.org/2000/svg" xmlns:xlink="http://www.w3.org/1999/xlink" width="222" height="127" viewBox="0 0 222 127" fill="none"><g opacity="1" transform="translate(0 0)  rotate(0 111 63.5)"><path id="矩形 2" fill-rule="evenodd" style="fill:#FFFFFF" transform="translate(0.375 0)  rotate(0 110.19117647058823 63.5)" opacity="0" d="M0,127L220.38,127L220.38,0L0,0L0,127Z " /><path  id="矩形 2" style="stroke:#2329D6; stroke-width:5; stroke-opacity:1; stroke-dasharray:0 0" transform="translate(0.375 0)  rotate(0 110.19117647058823 63.5)" d="M0,127L220.38,127L220.38,0L0,0L0,127Z " /><path id="文本 1" fill-rule="evenodd" style="fill:#2329D6" transform="translate(40.375 33)  rotate(0 72.32000000000001 30.48)" opacity="1" d="M7.72 57.32C7.72 57.32 13.12 60.8 20.8 60.8C20.8 60.8 26.8 60.8 31.68 58.8C31.68 58.8 36.56 56.8 39.4 52.88C39.4 52.88 42.24 48.96 42.24 43.52C42.24 43.52 42.24 38.4 39.68 34.88C39.68 34.88 37.12 31.36 32.4 29.52C32.4 29.52 36.32 27.68 38.4 24.36C38.4 24.36 40.48 21.04 40.48 16.56C40.48 16.56 40.48 11.68 38.04 7.92C38.04 7.92 35.6 4.16 31.16 2.08C31.16 2.08 26.72 0 21.04 0C21.04 0 13.6 0 8.2 3.64C8.2 3.64 2.8 7.28 0.72 14.16L10.96 20.08C10.96 20.08 12.08 16.32 14.4 14.24C14.4 14.24 16.72 12.16 19.76 12.16C19.76 12.16 22.48 12.16 24.24 13.72C24.24 13.72 26 15.28 26 17.84C26 17.84 26 20.64 23.8 22.52C23.8 22.52 21.6 24.4 17.76 24.4L14.48 24.4L14.48 35.44L16.48 35.44C16.48 35.44 27.84 35.44 27.84 42.24C27.84 42.24 27.84 45.28 25.72 47C25.72 47 23.6 48.72 20.4 48.72C20.4 48.72 17.12 48.72 14.48 46.72C14.48 46.72 11.84 44.72 10.72 40.88L0 47.12C0 47.12 2.32 53.84 7.72 57.32ZM144.64 30.48C144.64 30.48 144.64 15.6 139.08 7.84C139.08 7.84 133.52 0.08 123.28 0.08C123.28 0.08 113.04 0.08 107.4 7.84C107.4 7.84 101.76 15.6 101.76 30.48C101.76 30.48 101.76 45.36 107.4 53.08C107.4 53.08 113.04 60.8 123.28 60.8C123.28 60.8 133.52 60.8 139.08 53.04C139.08 53.04 144.64 45.28 144.64 30.48ZM128.48 43.88C128.48 43.88 126.8 48.32 123.28 48.32C123.28 48.32 119.68 48.32 117.96 43.92C117.96 43.92 116.24 39.52 116.24 30.48C116.24 30.48 116.24 21.28 117.96 16.96C117.96 16.96 119.68 12.64 123.28 12.64C123.28 12.64 126.8 12.64 128.48 17.08C128.48 17.08 130.16 21.52 130.16 30.48C130.16 30.48 130.16 39.44 128.48 43.88ZM80.12 53.2C80.12 56.4 77.88 58.68 77.88 58.68C75.64 60.96 72.44 60.96 72.44 60.96C69.32 60.96 67.12 58.68 67.12 58.68C64.92 56.4 64.92 53.2 64.92 53.2C64.92 50 67.12 47.72 67.12 47.72C69.32 45.44 72.44 45.44 72.44 45.44C75.64 45.44 77.88 47.72 77.88 47.72C80.12 50 80.12 53.2 80.12 53.2Z" /></g></svg>