<?xml version="1.0" encoding="utf-8"?><svg xmlns="http://www.w3.org/2000/svg"><symbol viewBox="0 0 24 24" id="sign-language"><path d="M10.5448 12.322C10.146 11.597 9.37496 11.1058 8.48913 11.1058C8.08034 11.1058 7.69598 11.2104 7.36137 11.3943M10.5448 14.5785C10.146 15.3035 9.37496 15.7948 8.48913 15.7948C7.89771 15.7948 7.35743 15.5758 6.94497 15.2145M6.94497 15.2145C6.45441 14.7847 6.14464 14.1537 6.14464 13.4503C6.14464 12.5642 6.63614 11.793 7.36137 11.3943M6.94497 15.2145H6.01642C5.7512 15.2145 5.49685 15.3198 5.30931 15.5073L4.713 16.1037C4.32248 16.4942 3.68931 16.4942 3.29879 16.1037L1.8763 14.6812C1.48577 14.2906 1.48577 13.6575 1.8763 13.267L2.69073 12.4525C2.74044 12.4028 2.78477 12.348 2.82298 12.289L4.88949 9.09806M4.88949 9.09806C5.06401 7.75419 6.14464 5.85853 7.67909 5.23022M4.88949 9.09806L7.36137 11.3943M5.79064 9.93519C6.20402 9.01629 8.56918 7.0872 9.82578 7.11513M6.55557 10.6458C7.3526 9.7382 9.55701 8.91974 11.414 9.43634"/><path d="M13.4552 12.9087C13.854 13.6337 14.625 14.1249 15.5109 14.1249C15.9197 14.1249 16.304 14.0203 16.6386 13.8364M13.4552 10.6522C13.854 9.92722 14.625 9.43595 15.5109 9.43595C16.1023 9.43595 16.6426 9.65494 17.055 10.0163M17.055 10.0163C17.5456 10.446 17.8554 11.077 17.8554 11.7804C17.8554 12.6665 17.3639 13.4377 16.6386 13.8364M17.055 10.0163L17.9836 10.0163C18.2488 10.0163 18.5032 9.9109 18.6907 9.72336L19.287 9.12705C19.6775 8.73653 20.3107 8.73653 20.7012 9.12705L22.1237 10.5495C22.5142 10.9401 22.5142 11.5732 22.1237 11.9638L21.3093 12.7782C21.2596 12.8279 21.2152 12.8827 21.177 12.9417L19.1105 16.1327M19.1105 16.1327C18.936 17.4765 17.8554 19.3722 16.3209 20.0005M19.1105 16.1327L16.6386 13.8364M18.2094 15.2955C17.796 16.2144 15.4308 18.1435 14.1742 18.1156M17.4444 14.5849C16.6474 15.4925 14.443 16.311 12.586 15.7944"/></symbol><symbol viewBox="0 0 24 24" id="ear"><path d="M6 10C6 6.13401 9.13401 3 13 3C16.866 3 20 6.13401 20 10C20 12.8721 18.2043 15.0806 16.5 17C15.0668 18.6141 14.5 22 11 22C9.87418 22 8.83526 21.6279 7.99951 21"/><path d="M10 10C10 8.34315 11.3431 7 13 7C14.6569 7 16 8.34315 16 10C16 10.7684 15.7111 11.4692 15.2361 12"/></symbol><symbol viewBox="0 0 24 24" id="eye"><path d="M22 12C22 12 19 18 12 18C5 18 2 12 2 12C2 12 5 6 12 6C19 6 22 12 22 12Z"/><circle cx="12" cy="12" r="3"/></symbol><symbol viewBox="0 0 24 24" id="support-alt"><path stroke-linecap="round" d="M11 8L9.42229 7.21115C9.14458 7.07229 8.83835 7 8.52786 7H7.82843C7.29799 7 6.78929 7.21071 6.41421 7.58579L5.58579 8.41421C5.21071 8.78929 5 9.29799 5 9.82843L5 14.9296C5 15.5983 5.3342 16.2228 5.8906 16.5937L9.75746 19.1716C10.4944 19.663 11.4668 19.611 12.1472 19.044L17 15"/><path d="M14.4549 12.9142C13.8515 12.1062 12.741 11.8739 11.8643 12.3721L10.009 13.4266C9.41298 13.7653 8.66412 13.6641 8.17937 13.1794V13.1794C7.54605 12.546 7.59324 11.5056 8.2813 10.9323L12.4437 7.46356C12.8032 7.16403 13.2562 7 13.7241 7H14.5279C14.8384 7 15.1446 7.07229 15.4223 7.21115L17.8944 8.44721C18.572 8.786 19 9.47852 19 10.2361L19 12.9796C19 14.9037 16.5489 15.718 15.3976 14.1764L14.4549 12.9142Z"/><path d="M1 17V8"/><path d="M1 17V8"/><path d="M23 17V8"/></symbol></svg>